<svg width="122" height="164" viewBox="0 0 122 164" version="1.1" xmlns="http://www.w3.org/2000/svg" xmlns:xlink="http://www.w3.org/1999/xlink" style="fill-rule:evenodd;clip-rule:evenodd;stroke-linejoin:round;stroke-miterlimit:2;"><g id="Drop"><path d="M60.748,0.835c0,0 -60.293,71.844 -60.293,102.634c0,33.277 27.016,60.294 60.293,60.294c33.277,0 60.293,-27.017 60.293,-60.294c0,-30.79 -60.293,-102.634 -60.293,-102.634Z" style="fill:#4098d7;"/><path d="M60.748,0.835c0,0 60.293,71.844 60.293,102.634c0,33.277 -27.016,60.294 -60.293,60.294l0,-162.928Z" style="fill:#0f609b;"/><path d="M23.835,8.105l33.563,78.11l-15.715,-3.024l12.684,68.241l-35.573,-82.975l15.555,2.983l-10.514,-63.335Z" style="fill:#fadb5f;"/><g id="Meter"><rect x="60.748" y="144.354" width="18.427" height="2.764" style="fill:#dceefb;"/><rect x="60.748" y="116.818" width="18.427" height="2.764" style="fill:#dceefb;"/><rect x="60.748" y="89.304" width="18.427" height="2.764" style="fill:#dceefb;"/><rect x="60.748" y="61.805" width="18.427" height="2.764" style="fill:#dceefb;"/><rect x="60.748" y="34.319" width="18.427" height="2.764" style="fill:#dceefb;"/><rect x="60.748" y="138.816" width="9.214" height="2.787" style="fill:#dceefb;"/><rect x="60.748" y="111.302" width="9.214" height="2.787" style="fill:#dceefb;"/><rect x="60.748" y="83.803" width="9.214" height="2.787" style="fill:#dceefb;"/><rect x="60.748" y="56.318" width="9.214" height="2.787" style="fill:#dceefb;"/><rect x="60.748" y="133.335" width="9.214" height="2.787" style="fill:#dceefb;"/><rect x="60.748" y="105.822" width="9.214" height="2.787" style="fill:#dceefb;"/><rect x="60.748" y="78.323" width="9.214" height="2.787" style="fill:#dceefb;"/><rect x="60.748" y="50.837" width="9.214" height="2.787" style="fill:#dceefb;"/><rect x="60.748" y="127.855" width="9.214" height="2.787" style="fill:#dceefb;"/><rect x="60.748" y="100.341" width="9.214" height="2.787" style="fill:#dceefb;"/><rect x="60.748" y="72.842" width="9.214" height="2.787" style="fill:#dceefb;"/><rect x="60.748" y="45.356" width="9.214" height="2.787" style="fill:#dceefb;"/><rect x="60.748" y="122.374" width="9.214" height="2.787" style="fill:#dceefb;"/><rect x="60.748" y="94.861" width="9.214" height="2.787" style="fill:#dceefb;"/><rect x="60.748" y="67.362" width="9.214" height="2.787" style="fill:#dceefb;"/><rect x="60.748" y="39.876" width="9.214" height="2.787" style="fill:#dceefb;"/></g></g></svg>