<svg width="516" height="267" viewBox="0 0 516 267" version="1.1" xmlns="http://www.w3.org/2000/svg" xmlns:xlink="http://www.w3.org/1999/xlink" style="fill-rule:evenodd;clip-rule:evenodd;stroke-linejoin:round;stroke-miterlimit:2;"><g id="Name-Vertical"><g><path d="M258.402,0c0,0 -61.968,73.84 -61.968,105.485c0,34.201 27.767,61.968 61.968,61.968c34.201,0 61.968,-27.767 61.968,-61.968c0,-31.645 -61.968,-105.485 -61.968,-105.485Z" style="fill:#4098d7;"/><path d="M258.402,0c0,0 61.968,73.84 61.968,105.485c0,34.201 -27.767,61.968 -61.968,61.968l0,-167.453Z" style="fill:#0f609b;"/><path d="M220.464,7.472l34.496,80.28l-16.152,-3.109l13.036,70.137l-36.561,-85.28l15.987,3.066l-10.806,-65.094Z" style="fill:#fadb5f;"/><g id="Meter"><rect x="258.402" y="147.505" width="18.939" height="2.841" style="fill:#dceefb;"/><rect x="258.402" y="119.204" width="18.939" height="2.841" style="fill:#dceefb;"/><rect x="258.402" y="90.926" width="18.939" height="2.841" style="fill:#dceefb;"/><rect x="258.402" y="62.663" width="18.939" height="2.841" style="fill:#dceefb;"/><rect x="258.402" y="34.414" width="18.939" height="2.841" style="fill:#dceefb;"/><rect x="258.402" y="141.813" width="9.47" height="2.865" style="fill:#dceefb;"/><rect x="258.402" y="113.536" width="9.47" height="2.865" style="fill:#dceefb;"/><rect x="258.402" y="85.273" width="9.47" height="2.865" style="fill:#dceefb;"/><rect x="258.402" y="57.023" width="9.47" height="2.865" style="fill:#dceefb;"/><rect x="258.402" y="136.181" width="9.47" height="2.865" style="fill:#dceefb;"/><rect x="258.402" y="107.903" width="9.47" height="2.865" style="fill:#dceefb;"/><rect x="258.402" y="79.64" width="9.47" height="2.865" style="fill:#dceefb;"/><rect x="258.402" y="51.391" width="9.47" height="2.865" style="fill:#dceefb;"/><rect x="258.402" y="130.548" width="9.47" height="2.865" style="fill:#dceefb;"/><rect x="258.402" y="102.27" width="9.47" height="2.865" style="fill:#dceefb;"/><rect x="258.402" y="74.007" width="9.47" height="2.865" style="fill:#dceefb;"/><rect x="258.402" y="45.758" width="9.47" height="2.865" style="fill:#dceefb;"/><rect x="258.402" y="124.915" width="9.47" height="2.865" style="fill:#dceefb;"/><rect x="258.402" y="96.637" width="9.47" height="2.865" style="fill:#dceefb;"/><rect x="258.402" y="68.374" width="9.47" height="2.865" style="fill:#dceefb;"/><rect x="258.402" y="40.125" width="9.47" height="2.865" style="fill:#dceefb;"/></g></g><path d="M18.776,211.562c5.312,0 9.257,1.314 11.834,3.944c2.578,2.63 3.867,6.627 3.867,11.99l0,19.059c0,1.406 -0.417,2.513 -1.25,3.32c-0.833,0.807 -1.979,1.211 -3.437,1.211c-1.354,0 -2.46,-0.417 -3.32,-1.25c-0.859,-0.833 -1.288,-1.927 -1.288,-3.281l0,-1.718c-0.886,2.031 -2.279,3.619 -4.179,4.765c-1.901,1.145 -4.101,1.718 -6.601,1.718c-2.551,0 -4.869,-0.521 -6.952,-1.562c-2.083,-1.042 -3.723,-2.474 -4.921,-4.296c-1.197,-1.823 -1.796,-3.854 -1.796,-6.093c0,-2.812 0.716,-5.025 2.148,-6.639c1.432,-1.615 3.762,-2.786 6.991,-3.515c3.228,-0.729 7.681,-1.094 13.357,-1.094l1.953,0l0,-1.796c0,-2.552 -0.547,-4.414 -1.641,-5.585c-1.093,-1.172 -2.864,-1.758 -5.311,-1.758c-1.511,0 -3.047,0.221 -4.609,0.664c-1.562,0.443 -3.411,1.081 -5.546,1.914c-1.354,0.677 -2.343,1.015 -2.968,1.015c-0.937,0 -1.705,-0.338 -2.304,-1.015c-0.599,-0.677 -0.899,-1.562 -0.899,-2.656c0,-0.885 0.222,-1.653 0.664,-2.304c0.443,-0.651 1.185,-1.263 2.227,-1.836c1.822,-0.989 3.996,-1.77 6.522,-2.343c2.525,-0.573 5.012,-0.859 7.459,-0.859Zm-2.421,32.728c2.604,0 4.726,-0.872 6.366,-2.617c1.64,-1.744 2.461,-3.996 2.461,-6.756l0,-1.64l-1.406,0c-3.489,0 -6.197,0.156 -8.124,0.468c-1.927,0.313 -3.307,0.859 -4.14,1.641c-0.833,0.781 -1.25,1.848 -1.25,3.202c0,1.666 0.586,3.033 1.758,4.101c1.171,1.067 2.617,1.601 4.335,1.601Z" style="fill:#102a43;fill-rule:nonzero;"/><path d="M76.266,195.236c1.458,0 2.656,0.417 3.593,1.25c0.938,0.833 1.406,1.927 1.406,3.281l0,46.71c0,1.406 -0.442,2.526 -1.328,3.359c-0.885,0.833 -2.057,1.25 -3.515,1.25c-1.458,0 -2.629,-0.417 -3.515,-1.25c-0.885,-0.833 -1.327,-1.953 -1.327,-3.359l0,-1.952c-1.146,2.135 -2.799,3.801 -4.961,4.999c-2.161,1.197 -4.621,1.796 -7.381,1.796c-3.281,0 -6.21,-0.833 -8.788,-2.499c-2.577,-1.667 -4.582,-4.023 -6.014,-7.069c-1.432,-3.047 -2.148,-6.549 -2.148,-10.506c0,-3.958 0.716,-7.421 2.148,-10.389c1.432,-2.968 3.424,-5.26 5.975,-6.874c2.552,-1.614 5.494,-2.421 8.827,-2.421c2.76,0 5.207,0.572 7.342,1.718c2.135,1.146 3.776,2.76 4.921,4.843l0,-18.512c0,-1.302 0.43,-2.357 1.289,-3.164c0.859,-0.807 2.018,-1.211 3.476,-1.211Zm-14.45,48.507c3.124,0 5.532,-1.067 7.225,-3.202c1.692,-2.135 2.539,-5.182 2.539,-9.139c0,-3.958 -0.847,-6.991 -2.539,-9.1c-1.693,-2.109 -4.075,-3.164 -7.147,-3.164c-3.125,0 -5.546,1.042 -7.265,3.125c-1.718,2.083 -2.577,5.077 -2.577,8.983c0,3.957 0.859,7.03 2.577,9.217c1.719,2.187 4.114,3.28 7.187,3.28Z" style="fill:#102a43;fill-rule:nonzero;"/><path d="M121.571,240.228c0.885,0 1.601,0.339 2.148,1.016c0.546,0.677 0.82,1.588 0.82,2.734c0,1.614 -0.964,2.968 -2.89,4.062c-1.771,0.989 -3.776,1.783 -6.015,2.382c-2.239,0.599 -4.374,0.898 -6.405,0.898c-6.145,0 -11.014,-1.77 -14.607,-5.311c-3.593,-3.541 -5.389,-8.384 -5.389,-14.529c0,-3.906 0.781,-7.369 2.343,-10.389c1.562,-3.02 3.762,-5.363 6.6,-7.03c2.838,-1.666 6.054,-2.499 9.647,-2.499c3.437,0 6.431,0.755 8.983,2.265c2.551,1.51 4.53,3.645 5.936,6.405c1.406,2.76 2.109,6.015 2.109,9.764c0,2.239 -0.989,3.359 -2.968,3.359l-23.043,0c0.313,3.593 1.328,6.235 3.047,7.928c1.718,1.692 4.218,2.539 7.498,2.539c1.667,0 3.138,-0.209 4.414,-0.625c1.275,-0.417 2.72,-0.99 4.335,-1.719c1.562,-0.833 2.708,-1.25 3.437,-1.25Zm-13.514,-21.793c-2.655,0 -4.777,0.834 -6.366,2.5c-1.588,1.666 -2.538,4.062 -2.851,7.186l17.653,0c-0.104,-3.176 -0.885,-5.585 -2.343,-7.225c-1.458,-1.64 -3.489,-2.461 -6.093,-2.461Z" style="fill:#102a43;fill-rule:nonzero;"/><path d="M146.644,251.32c-5.676,0 -10.258,-1.119 -13.747,-3.359c-1.667,-0.989 -2.5,-2.395 -2.5,-4.218c0,-1.041 0.287,-1.887 0.859,-2.538c0.573,-0.651 1.276,-0.977 2.109,-0.977c0.886,0 2.109,0.417 3.672,1.25c1.666,0.781 3.189,1.38 4.569,1.797c1.38,0.416 3.138,0.625 5.273,0.625c2.187,0 3.892,-0.365 5.116,-1.094c1.224,-0.729 1.836,-1.744 1.836,-3.046c0,-0.886 -0.248,-1.589 -0.743,-2.109c-0.494,-0.521 -1.38,-1.003 -2.655,-1.445c-1.276,-0.443 -3.216,-0.951 -5.82,-1.523c-4.634,-0.938 -7.954,-2.266 -9.959,-3.984c-2.005,-1.719 -3.007,-4.088 -3.007,-7.108c0,-2.292 0.677,-4.361 2.031,-6.21c1.354,-1.849 3.215,-3.281 5.585,-4.296c2.369,-1.016 5.064,-1.523 8.084,-1.523c2.187,0 4.296,0.273 6.327,0.82c2.031,0.547 3.854,1.341 5.468,2.382c1.666,1.042 2.5,2.422 2.5,4.14c0,1.042 -0.287,1.914 -0.86,2.617c-0.572,0.703 -1.275,1.054 -2.109,1.054c-0.572,0 -1.132,-0.117 -1.679,-0.351c-0.547,-0.235 -1.237,-0.586 -2.07,-1.055c-1.51,-0.781 -2.812,-1.367 -3.905,-1.757c-1.094,-0.391 -2.448,-0.586 -4.062,-0.586c-1.927,0 -3.45,0.391 -4.57,1.172c-1.119,0.781 -1.679,1.848 -1.679,3.202c0,1.302 0.573,2.291 1.718,2.968c1.146,0.677 3.359,1.354 6.64,2.031c3.489,0.729 6.223,1.563 8.201,2.5c1.979,0.937 3.398,2.109 4.257,3.515c0.86,1.406 1.289,3.202 1.289,5.39c0,3.541 -1.471,6.379 -4.413,8.514c-2.942,2.135 -6.861,3.202 -11.756,3.202Z" style="fill:#102a43;fill-rule:nonzero;"/><path d="M184.528,251.32c-5.676,0 -10.258,-1.119 -13.747,-3.359c-1.667,-0.989 -2.5,-2.395 -2.5,-4.218c0,-1.041 0.286,-1.887 0.859,-2.538c0.573,-0.651 1.276,-0.977 2.109,-0.977c0.886,0 2.109,0.417 3.672,1.25c1.666,0.781 3.189,1.38 4.569,1.797c1.38,0.416 3.137,0.625 5.273,0.625c2.187,0 3.892,-0.365 5.116,-1.094c1.224,-0.729 1.835,-1.744 1.835,-3.046c0,-0.886 -0.247,-1.589 -0.742,-2.109c-0.494,-0.521 -1.38,-1.003 -2.655,-1.445c-1.276,-0.443 -3.216,-0.951 -5.82,-1.523c-4.634,-0.938 -7.954,-2.266 -9.959,-3.984c-2.005,-1.719 -3.007,-4.088 -3.007,-7.108c0,-2.292 0.677,-4.361 2.031,-6.21c1.354,-1.849 3.215,-3.281 5.585,-4.296c2.369,-1.016 5.064,-1.523 8.084,-1.523c2.187,0 4.296,0.273 6.327,0.82c2.031,0.547 3.854,1.341 5.468,2.382c1.666,1.042 2.5,2.422 2.5,4.14c0,1.042 -0.287,1.914 -0.86,2.617c-0.573,0.703 -1.276,1.054 -2.109,1.054c-0.573,0 -1.132,-0.117 -1.679,-0.351c-0.547,-0.235 -1.237,-0.586 -2.07,-1.055c-1.51,-0.781 -2.812,-1.367 -3.906,-1.757c-1.093,-0.391 -2.447,-0.586 -4.061,-0.586c-1.927,0 -3.45,0.391 -4.57,1.172c-1.119,0.781 -1.679,1.848 -1.679,3.202c0,1.302 0.573,2.291 1.718,2.968c1.146,0.677 3.359,1.354 6.64,2.031c3.489,0.729 6.222,1.563 8.201,2.5c1.979,0.937 3.398,2.109 4.257,3.515c0.86,1.406 1.289,3.202 1.289,5.39c0,3.541 -1.471,6.379 -4.413,8.514c-2.942,2.135 -6.861,3.202 -11.756,3.202Z" style="fill:#102a43;fill-rule:nonzero;"/><path d="M226.005,251.32c-3.905,0 -7.329,-0.807 -10.271,-2.421c-2.943,-1.615 -5.221,-3.932 -6.835,-6.952c-1.614,-3.02 -2.422,-6.535 -2.422,-10.545c0,-4.01 0.808,-7.512 2.422,-10.506c1.614,-2.994 3.892,-5.299 6.835,-6.913c2.942,-1.614 6.366,-2.421 10.271,-2.421c3.906,0 7.33,0.807 10.272,2.421c2.942,1.614 5.207,3.919 6.795,6.913c1.589,2.994 2.383,6.496 2.383,10.506c0,4.01 -0.794,7.525 -2.383,10.545c-1.588,3.02 -3.853,5.337 -6.795,6.952c-2.942,1.614 -6.366,2.421 -10.272,2.421Zm-0.078,-7.577c3.177,0 5.598,-1.041 7.264,-3.124c1.667,-2.083 2.5,-5.155 2.5,-9.217c0,-4.01 -0.833,-7.069 -2.5,-9.178c-1.666,-2.109 -4.061,-3.164 -7.186,-3.164c-3.124,0 -5.533,1.055 -7.225,3.164c-1.693,2.109 -2.539,5.168 -2.539,9.178c0,4.062 0.833,7.134 2.5,9.217c1.666,2.083 4.062,3.124 7.186,3.124Z" style="fill:#102a43;fill-rule:nonzero;"/><path d="M304.897,240.228c0.886,0 1.602,0.339 2.148,1.016c0.547,0.677 0.821,1.588 0.821,2.734c0,1.614 -0.964,2.968 -2.89,4.062c-1.771,0.989 -3.776,1.783 -6.015,2.382c-2.239,0.599 -4.374,0.898 -6.405,0.898c-6.145,0 -11.014,-1.77 -14.607,-5.311c-3.593,-3.541 -5.39,-8.384 -5.39,-14.529c0,-3.906 0.782,-7.369 2.344,-10.389c1.562,-3.02 3.762,-5.363 6.6,-7.03c2.838,-1.666 6.054,-2.499 9.647,-2.499c3.437,0 6.431,0.755 8.983,2.265c2.551,1.51 4.53,3.645 5.936,6.405c1.406,2.76 2.109,6.015 2.109,9.764c0,2.239 -0.989,3.359 -2.968,3.359l-23.043,0c0.313,3.593 1.328,6.235 3.046,7.928c1.719,1.692 4.218,2.539 7.499,2.539c1.666,0 3.138,-0.209 4.413,-0.625c1.276,-0.417 2.721,-0.99 4.336,-1.719c1.562,-0.833 2.707,-1.25 3.436,-1.25Zm-13.513,-21.793c-2.656,0 -4.778,0.834 -6.366,2.5c-1.588,1.666 -2.538,4.062 -2.851,7.186l17.653,0c-0.104,-3.176 -0.885,-5.585 -2.343,-7.225c-1.458,-1.64 -3.489,-2.461 -6.093,-2.461Z" style="fill:#102a43;fill-rule:nonzero;"/><path d="M338.329,211.562c4.582,0 7.993,1.301 10.233,3.905c2.239,2.604 3.358,6.535 3.358,11.795l0,19.215c0,1.458 -0.429,2.604 -1.289,3.437c-0.859,0.833 -2.043,1.25 -3.554,1.25c-1.51,0 -2.707,-0.417 -3.593,-1.25c-0.885,-0.833 -1.328,-1.979 -1.328,-3.437l0,-18.668c0,-2.968 -0.559,-5.13 -1.679,-6.483c-1.12,-1.354 -2.877,-2.031 -5.272,-2.031c-2.812,0 -5.065,0.885 -6.757,2.655c-1.693,1.771 -2.539,4.14 -2.539,7.109l0,17.418c0,1.458 -0.442,2.604 -1.328,3.437c-0.885,0.833 -2.083,1.25 -3.593,1.25c-1.51,0 -2.695,-0.417 -3.554,-1.25c-0.859,-0.833 -1.289,-1.979 -1.289,-3.437l0,-30.229c0,-1.354 0.443,-2.447 1.328,-3.28c0.886,-0.834 2.083,-1.25 3.593,-1.25c1.354,0 2.461,0.403 3.32,1.211c0.859,0.807 1.289,1.861 1.289,3.163l0,2.109c1.302,-2.135 3.046,-3.775 5.233,-4.921c2.188,-1.146 4.661,-1.718 7.421,-1.718Z" style="fill:#102a43;fill-rule:nonzero;"/><path d="M392.069,240.228c0.886,0 1.602,0.339 2.148,1.016c0.547,0.677 0.821,1.588 0.821,2.734c0,1.614 -0.964,2.968 -2.89,4.062c-1.771,0.989 -3.776,1.783 -6.015,2.382c-2.239,0.599 -4.374,0.898 -6.405,0.898c-6.145,0 -11.014,-1.77 -14.607,-5.311c-3.593,-3.541 -5.39,-8.384 -5.39,-14.529c0,-3.906 0.782,-7.369 2.344,-10.389c1.562,-3.02 3.762,-5.363 6.6,-7.03c2.838,-1.666 6.054,-2.499 9.647,-2.499c3.437,0 6.431,0.755 8.983,2.265c2.551,1.51 4.53,3.645 5.936,6.405c1.406,2.76 2.109,6.015 2.109,9.764c0,2.239 -0.989,3.359 -2.968,3.359l-23.043,0c0.313,3.593 1.328,6.235 3.046,7.928c1.719,1.692 4.218,2.539 7.499,2.539c1.666,0 3.138,-0.209 4.413,-0.625c1.276,-0.417 2.721,-0.99 4.336,-1.719c1.562,-0.833 2.707,-1.25 3.436,-1.25Zm-13.513,-21.793c-2.656,0 -4.778,0.834 -6.366,2.5c-1.588,1.666 -2.538,4.062 -2.851,7.186l17.653,0c-0.104,-3.176 -0.885,-5.585 -2.343,-7.225c-1.458,-1.64 -3.489,-2.461 -6.093,-2.461Z" style="fill:#102a43;fill-rule:nonzero;"/><path d="M424.642,211.718c1.354,-0.104 2.421,0.182 3.202,0.859c0.781,0.677 1.172,1.692 1.172,3.046c0,1.406 -0.339,2.448 -1.015,3.125c-0.677,0.677 -1.901,1.119 -3.672,1.328l-2.343,0.234c-3.072,0.313 -5.325,1.354 -6.757,3.125c-1.432,1.77 -2.148,3.983 -2.148,6.639l0,16.403c0,1.51 -0.468,2.669 -1.406,3.476c-0.937,0.807 -2.109,1.211 -3.515,1.211c-1.406,0 -2.564,-0.404 -3.476,-1.211c-0.911,-0.807 -1.367,-1.966 -1.367,-3.476l0,-30.229c0,-1.458 0.456,-2.577 1.367,-3.358c0.912,-0.782 2.044,-1.172 3.398,-1.172c1.354,0 2.448,0.377 3.281,1.132c0.833,0.756 1.25,1.836 1.25,3.242l0,3.125c0.989,-2.292 2.46,-4.062 4.413,-5.312c1.953,-1.25 4.127,-1.953 6.522,-2.109l1.094,-0.078Z" style="fill:#102a43;fill-rule:nonzero;"/><path d="M464.791,211.718c1.458,0 2.63,0.416 3.515,1.25c0.885,0.833 1.328,1.952 1.328,3.358l0,30.854c0,5.989 -1.667,10.519 -4.999,13.592c-3.333,3.072 -8.254,4.608 -14.763,4.608c-5.676,0 -10.415,-1.067 -14.217,-3.202c-1.926,-1.146 -2.89,-2.526 -2.89,-4.14c0,-1.146 0.274,-2.057 0.82,-2.734c0.547,-0.677 1.263,-1.016 2.149,-1.016c0.468,0 1.041,0.118 1.718,0.352c0.677,0.234 1.38,0.508 2.109,0.82c1.875,0.781 3.554,1.38 5.038,1.797c1.484,0.416 3.19,0.625 5.116,0.625c6.822,0 10.233,-3.333 10.233,-9.999l0,-4.999c-1.146,2.135 -2.812,3.789 -4.999,4.96c-2.187,1.172 -4.687,1.758 -7.499,1.758c-3.333,0 -6.288,-0.794 -8.865,-2.383c-2.578,-1.588 -4.596,-3.814 -6.054,-6.678c-1.458,-2.864 -2.187,-6.171 -2.187,-9.92c0,-3.75 0.716,-7.069 2.148,-9.959c1.432,-2.891 3.45,-5.13 6.054,-6.718c2.603,-1.588 5.571,-2.382 8.904,-2.382c2.812,0 5.312,0.585 7.499,1.757c2.187,1.172 3.853,2.825 4.999,4.96l0,-2.031c0,-1.354 0.443,-2.447 1.328,-3.28c0.885,-0.834 2.057,-1.25 3.515,-1.25Zm-14.763,30.307c3.124,0 5.559,-1.015 7.303,-3.046c1.745,-2.031 2.617,-4.817 2.617,-8.358c0,-3.593 -0.872,-6.405 -2.617,-8.436c-1.744,-2.031 -4.179,-3.047 -7.303,-3.047c-3.073,0 -5.494,1.016 -7.264,3.047c-1.771,2.031 -2.656,4.843 -2.656,8.436c0,3.541 0.885,6.327 2.656,8.358c1.77,2.031 4.191,3.046 7.264,3.046Z" style="fill:#102a43;fill-rule:nonzero;"/><path d="M506.346,214.53c0.417,-0.937 0.976,-1.627 1.679,-2.07c0.703,-0.443 1.471,-0.664 2.305,-0.664c1.197,0 2.278,0.404 3.241,1.211c0.964,0.807 1.445,1.809 1.445,3.007c0,0.573 -0.156,1.172 -0.468,1.797l-21.325,44.679c-0.885,1.771 -2.265,2.656 -4.14,2.656c-1.197,0 -2.252,-0.378 -3.163,-1.133c-0.911,-0.755 -1.367,-1.705 -1.367,-2.851c0,-0.573 0.156,-1.224 0.469,-1.953l5.311,-11.169l-14.528,-30.229c-0.261,-0.521 -0.391,-1.12 -0.391,-1.797c0,-1.198 0.508,-2.213 1.523,-3.046c1.016,-0.834 2.174,-1.25 3.476,-1.25c0.885,0 1.692,0.221 2.422,0.664c0.729,0.442 1.301,1.132 1.718,2.07l10.936,24.136l10.857,-24.058Z" style="fill:#102a43;fill-rule:nonzero;"/></g></svg>