<svg width="393" height="163" viewBox="0 0 393 163" version="1.1" xmlns="http://www.w3.org/2000/svg" xmlns:xlink="http://www.w3.org/1999/xlink" style="fill-rule:evenodd;clip-rule:evenodd;stroke-linejoin:round;stroke-miterlimit:2;"><g id="Name-Horizontal-Stacked"><g><path d="M61.148,0.044c0,0 -60.294,71.844 -60.294,102.634c0,33.277 27.017,60.293 60.294,60.293c33.277,0 60.293,-27.016 60.293,-60.293c0,-30.79 -60.293,-102.634 -60.293,-102.634Z" style="fill:#4098d7;"/><path d="M61.148,0.044c0,0 60.293,71.844 60.293,102.634c0,33.277 -27.016,60.293 -60.293,60.293l0,-162.927Z" style="fill:#0f609b;"/><path d="M24.235,7.314l33.563,78.11l-15.715,-3.025l12.684,68.242l-35.573,-82.975l15.555,2.983l-10.514,-63.335Z" style="fill:#fadb5f;"/><g id="Meter"><rect x="61.148" y="143.562" width="18.427" height="2.764" style="fill:#dceefb;"/><rect x="61.148" y="116.026" width="18.427" height="2.764" style="fill:#dceefb;"/><rect x="61.148" y="88.513" width="18.427" height="2.764" style="fill:#dceefb;"/><rect x="61.148" y="61.013" width="18.427" height="2.764" style="fill:#dceefb;"/><rect x="61.148" y="33.528" width="18.427" height="2.764" style="fill:#dceefb;"/><rect x="61.148" y="138.024" width="9.214" height="2.787" style="fill:#dceefb;"/><rect x="61.148" y="110.511" width="9.214" height="2.787" style="fill:#dceefb;"/><rect x="61.148" y="83.012" width="9.214" height="2.787" style="fill:#dceefb;"/><rect x="61.148" y="55.526" width="9.214" height="2.787" style="fill:#dceefb;"/><rect x="61.148" y="132.544" width="9.214" height="2.787" style="fill:#dceefb;"/><rect x="61.148" y="105.03" width="9.214" height="2.787" style="fill:#dceefb;"/><rect x="61.148" y="77.531" width="9.214" height="2.787" style="fill:#dceefb;"/><rect x="61.148" y="50.045" width="9.214" height="2.787" style="fill:#dceefb;"/><rect x="61.148" y="127.063" width="9.214" height="2.787" style="fill:#dceefb;"/><rect x="61.148" y="99.55" width="9.214" height="2.787" style="fill:#dceefb;"/><rect x="61.148" y="72.051" width="9.214" height="2.787" style="fill:#dceefb;"/><rect x="61.148" y="44.565" width="9.214" height="2.787" style="fill:#dceefb;"/><rect x="61.148" y="121.583" width="9.214" height="2.787" style="fill:#dceefb;"/><rect x="61.148" y="94.069" width="9.214" height="2.787" style="fill:#dceefb;"/><rect x="61.148" y="66.57" width="9.214" height="2.787" style="fill:#dceefb;"/><rect x="61.148" y="39.084" width="9.214" height="2.787" style="fill:#dceefb;"/></g></g><path d="M186.226,122.392c0.861,0 1.558,0.329 2.09,0.988c0.532,0.659 0.798,1.545 0.798,2.66c0,1.571 -0.938,2.888 -2.812,3.952c-1.723,0.963 -3.674,1.735 -5.852,2.318c-2.179,0.583 -4.256,0.874 -6.232,0.874c-5.979,0 -10.716,-1.723 -14.212,-5.168c-3.496,-3.445 -5.244,-8.157 -5.244,-14.136c0,-3.8 0.76,-7.169 2.28,-10.108c1.52,-2.939 3.66,-5.219 6.422,-6.84c2.761,-1.621 5.89,-2.432 9.386,-2.432c3.344,0 6.257,0.735 8.74,2.204c2.482,1.469 4.408,3.547 5.776,6.232c1.368,2.685 2.052,5.852 2.052,9.5c0,2.179 -0.963,3.268 -2.888,3.268l-22.42,0c0.304,3.496 1.292,6.067 2.964,7.714c1.672,1.647 4.104,2.47 7.296,2.47c1.621,0 3.052,-0.203 4.294,-0.608c1.241,-0.405 2.647,-0.963 4.218,-1.672c1.52,-0.811 2.634,-1.216 3.344,-1.216Zm-13.148,-21.204c-2.584,0 -4.649,0.811 -6.194,2.432c-1.546,1.621 -2.47,3.952 -2.774,6.992l17.176,0c-0.102,-3.091 -0.862,-5.434 -2.28,-7.03c-1.419,-1.596 -3.395,-2.394 -5.928,-2.394Z" style="fill:#102a43;fill-rule:nonzero;"/><path d="M218.754,94.5c4.458,0 7.777,1.267 9.956,3.8c2.178,2.533 3.268,6.359 3.268,11.476l0,18.696c0,1.419 -0.418,2.533 -1.254,3.344c-0.836,0.811 -1.989,1.216 -3.458,1.216c-1.47,0 -2.635,-0.405 -3.496,-1.216c-0.862,-0.811 -1.292,-1.925 -1.292,-3.344l0,-18.164c0,-2.888 -0.545,-4.991 -1.634,-6.308c-1.09,-1.317 -2.8,-1.976 -5.13,-1.976c-2.736,0 -4.928,0.861 -6.574,2.584c-1.647,1.723 -2.47,4.028 -2.47,6.916l0,16.948c0,1.419 -0.431,2.533 -1.292,3.344c-0.862,0.811 -2.027,1.216 -3.496,1.216c-1.47,0 -2.622,-0.405 -3.458,-1.216c-0.836,-0.811 -1.254,-1.925 -1.254,-3.344l0,-29.412c0,-1.317 0.43,-2.381 1.292,-3.192c0.861,-0.811 2.026,-1.216 3.496,-1.216c1.317,0 2.394,0.393 3.23,1.178c0.836,0.785 1.254,1.811 1.254,3.078l0,2.052c1.266,-2.077 2.964,-3.673 5.092,-4.788c2.128,-1.115 4.534,-1.672 7.22,-1.672Z" style="fill:#102a43;fill-rule:nonzero;"/><path d="M271.042,122.392c0.861,0 1.558,0.329 2.09,0.988c0.532,0.659 0.798,1.545 0.798,2.66c0,1.571 -0.938,2.888 -2.812,3.952c-1.723,0.963 -3.674,1.735 -5.852,2.318c-2.179,0.583 -4.256,0.874 -6.232,0.874c-5.979,0 -10.716,-1.723 -14.212,-5.168c-3.496,-3.445 -5.244,-8.157 -5.244,-14.136c0,-3.8 0.76,-7.169 2.28,-10.108c1.52,-2.939 3.66,-5.219 6.422,-6.84c2.761,-1.621 5.89,-2.432 9.386,-2.432c3.344,0 6.257,0.735 8.74,2.204c2.482,1.469 4.408,3.547 5.776,6.232c1.368,2.685 2.052,5.852 2.052,9.5c0,2.179 -0.963,3.268 -2.888,3.268l-22.42,0c0.304,3.496 1.292,6.067 2.964,7.714c1.672,1.647 4.104,2.47 7.296,2.47c1.621,0 3.052,-0.203 4.294,-0.608c1.241,-0.405 2.647,-0.963 4.218,-1.672c1.52,-0.811 2.634,-1.216 3.344,-1.216Zm-13.148,-21.204c-2.584,0 -4.649,0.811 -6.194,2.432c-1.546,1.621 -2.47,3.952 -2.774,6.992l17.176,0c-0.102,-3.091 -0.862,-5.434 -2.28,-7.03c-1.419,-1.596 -3.395,-2.394 -5.928,-2.394Z" style="fill:#102a43;fill-rule:nonzero;"/><path d="M302.734,94.652c1.317,-0.101 2.356,0.177 3.116,0.836c0.76,0.659 1.14,1.647 1.14,2.964c0,1.368 -0.33,2.381 -0.988,3.04c-0.659,0.659 -1.85,1.089 -3.572,1.292l-2.28,0.228c-2.99,0.304 -5.181,1.317 -6.574,3.04c-1.394,1.723 -2.09,3.876 -2.09,6.46l0,15.96c0,1.469 -0.456,2.597 -1.368,3.382c-0.912,0.785 -2.052,1.178 -3.42,1.178c-1.368,0 -2.496,-0.393 -3.382,-1.178c-0.887,-0.785 -1.33,-1.913 -1.33,-3.382l0,-29.412c0,-1.419 0.443,-2.508 1.33,-3.268c0.886,-0.76 1.988,-1.14 3.306,-1.14c1.317,0 2.381,0.367 3.192,1.102c0.81,0.735 1.216,1.786 1.216,3.154l0,3.04c0.962,-2.229 2.394,-3.952 4.294,-5.168c1.9,-1.216 4.015,-1.9 6.346,-2.052l1.064,-0.076Z" style="fill:#102a43;fill-rule:nonzero;"/><path d="M341.798,94.652c1.418,0 2.558,0.405 3.42,1.216c0.861,0.811 1.292,1.9 1.292,3.268l0,30.02c0,5.827 -1.622,10.235 -4.864,13.224c-3.243,2.989 -8.031,4.484 -14.364,4.484c-5.523,0 -10.134,-1.039 -13.832,-3.116c-1.875,-1.115 -2.812,-2.457 -2.812,-4.028c0,-1.115 0.266,-2.001 0.798,-2.66c0.532,-0.659 1.228,-0.988 2.09,-0.988c0.456,0 1.013,0.114 1.672,0.342c0.658,0.228 1.342,0.494 2.052,0.798c1.824,0.76 3.458,1.343 4.902,1.748c1.444,0.405 3.103,0.608 4.978,0.608c6.637,0 9.956,-3.243 9.956,-9.728l0,-4.864c-1.115,2.077 -2.736,3.686 -4.864,4.826c-2.128,1.14 -4.56,1.71 -7.296,1.71c-3.243,0 -6.118,-0.773 -8.626,-2.318c-2.508,-1.545 -4.472,-3.711 -5.89,-6.498c-1.419,-2.787 -2.128,-6.004 -2.128,-9.652c0,-3.648 0.696,-6.878 2.09,-9.69c1.393,-2.812 3.356,-4.991 5.89,-6.536c2.533,-1.545 5.421,-2.318 8.664,-2.318c2.736,0 5.168,0.57 7.296,1.71c2.128,1.14 3.749,2.749 4.864,4.826l0,-1.976c0,-1.317 0.43,-2.381 1.292,-3.192c0.861,-0.811 2.001,-1.216 3.42,-1.216Zm-14.364,29.488c3.04,0 5.408,-0.988 7.106,-2.964c1.697,-1.976 2.546,-4.687 2.546,-8.132c0,-3.496 -0.849,-6.232 -2.546,-8.208c-1.698,-1.976 -4.066,-2.964 -7.106,-2.964c-2.99,0 -5.346,0.988 -7.068,2.964c-1.723,1.976 -2.584,4.712 -2.584,8.208c0,3.445 0.861,6.156 2.584,8.132c1.722,1.976 4.078,2.964 7.068,2.964Z" style="fill:#102a43;fill-rule:nonzero;"/><path d="M382.23,97.388c0.405,-0.912 0.95,-1.583 1.634,-2.014c0.684,-0.431 1.431,-0.646 2.242,-0.646c1.165,0 2.216,0.393 3.154,1.178c0.937,0.785 1.406,1.761 1.406,2.926c0,0.557 -0.152,1.14 -0.456,1.748l-20.748,43.472c-0.862,1.723 -2.204,2.584 -4.028,2.584c-1.166,0 -2.192,-0.367 -3.078,-1.102c-0.887,-0.735 -1.33,-1.659 -1.33,-2.774c0,-0.557 0.152,-1.191 0.456,-1.9l5.168,-10.868l-14.136,-29.412c-0.254,-0.507 -0.38,-1.089 -0.38,-1.748c0,-1.165 0.494,-2.153 1.482,-2.964c0.988,-0.811 2.115,-1.216 3.382,-1.216c0.861,0 1.646,0.215 2.356,0.646c0.709,0.431 1.266,1.102 1.672,2.014l10.64,23.484l10.564,-23.408Z" style="fill:#102a43;fill-rule:nonzero;"/><path d="M172.318,39.856c5.168,0 9.006,1.279 11.514,3.838c2.508,2.559 3.762,6.447 3.762,11.666l0,18.544c0,1.368 -0.406,2.445 -1.216,3.23c-0.811,0.785 -1.926,1.178 -3.344,1.178c-1.318,0 -2.394,-0.405 -3.23,-1.216c-0.836,-0.811 -1.254,-1.875 -1.254,-3.192l0,-1.672c-0.862,1.976 -2.217,3.521 -4.066,4.636c-1.85,1.115 -3.99,1.672 -6.422,1.672c-2.483,0 -4.738,-0.507 -6.764,-1.52c-2.027,-1.013 -3.623,-2.407 -4.788,-4.18c-1.166,-1.773 -1.748,-3.749 -1.748,-5.928c0,-2.736 0.696,-4.889 2.09,-6.46c1.393,-1.571 3.66,-2.711 6.802,-3.42c3.141,-0.709 7.473,-1.064 12.996,-1.064l1.9,0l0,-1.748c0,-2.483 -0.532,-4.294 -1.596,-5.434c-1.064,-1.14 -2.787,-1.71 -5.168,-1.71c-1.47,0 -2.964,0.215 -4.484,0.646c-1.52,0.431 -3.319,1.051 -5.396,1.862c-1.318,0.659 -2.28,0.988 -2.888,0.988c-0.912,0 -1.66,-0.329 -2.242,-0.988c-0.583,-0.659 -0.874,-1.52 -0.874,-2.584c0,-0.861 0.215,-1.609 0.646,-2.242c0.43,-0.633 1.152,-1.229 2.166,-1.786c1.773,-0.963 3.888,-1.723 6.346,-2.28c2.457,-0.557 4.876,-0.836 7.258,-0.836Zm-2.356,31.844c2.533,0 4.598,-0.849 6.194,-2.546c1.596,-1.697 2.394,-3.889 2.394,-6.574l0,-1.596l-1.368,0c-3.395,0 -6.03,0.152 -7.904,0.456c-1.875,0.304 -3.218,0.836 -4.028,1.596c-0.811,0.76 -1.216,1.799 -1.216,3.116c0,1.621 0.57,2.951 1.71,3.99c1.14,1.039 2.546,1.558 4.218,1.558Z" style="fill:#102a43;fill-rule:nonzero;"/><path d="M228.254,23.972c1.418,0 2.584,0.405 3.496,1.216c0.912,0.811 1.368,1.875 1.368,3.192l0,45.448c0,1.368 -0.431,2.457 -1.292,3.268c-0.862,0.811 -2.002,1.216 -3.42,1.216c-1.419,0 -2.559,-0.405 -3.42,-1.216c-0.862,-0.811 -1.292,-1.9 -1.292,-3.268l0,-1.9c-1.115,2.077 -2.724,3.699 -4.826,4.864c-2.103,1.165 -4.497,1.748 -7.182,1.748c-3.192,0 -6.042,-0.811 -8.55,-2.432c-2.508,-1.621 -4.459,-3.914 -5.852,-6.878c-1.394,-2.964 -2.09,-6.371 -2.09,-10.222c0,-3.851 0.696,-7.22 2.09,-10.108c1.393,-2.888 3.331,-5.117 5.814,-6.688c2.482,-1.571 5.345,-2.356 8.588,-2.356c2.685,0 5.066,0.557 7.144,1.672c2.077,1.115 3.673,2.685 4.788,4.712l0,-18.012c0,-1.267 0.418,-2.293 1.254,-3.078c0.836,-0.785 1.963,-1.178 3.382,-1.178Zm-14.06,47.196c3.04,0 5.383,-1.039 7.03,-3.116c1.646,-2.077 2.47,-5.041 2.47,-8.892c0,-3.851 -0.824,-6.802 -2.47,-8.854c-1.647,-2.052 -3.965,-3.078 -6.954,-3.078c-3.04,0 -5.396,1.013 -7.068,3.04c-1.672,2.027 -2.508,4.94 -2.508,8.74c0,3.851 0.836,6.84 2.508,8.968c1.672,2.128 4.002,3.192 6.992,3.192Z" style="fill:#102a43;fill-rule:nonzero;"/><path d="M272.334,67.748c0.861,0 1.558,0.329 2.09,0.988c0.532,0.659 0.798,1.545 0.798,2.66c0,1.571 -0.938,2.888 -2.812,3.952c-1.723,0.963 -3.674,1.735 -5.852,2.318c-2.179,0.583 -4.256,0.874 -6.232,0.874c-5.979,0 -10.716,-1.723 -14.212,-5.168c-3.496,-3.445 -5.244,-8.157 -5.244,-14.136c0,-3.8 0.76,-7.169 2.28,-10.108c1.52,-2.939 3.66,-5.219 6.422,-6.84c2.761,-1.621 5.89,-2.432 9.386,-2.432c3.344,0 6.257,0.735 8.74,2.204c2.482,1.469 4.408,3.547 5.776,6.232c1.368,2.685 2.052,5.852 2.052,9.5c0,2.179 -0.963,3.268 -2.888,3.268l-22.42,0c0.304,3.496 1.292,6.067 2.964,7.714c1.672,1.647 4.104,2.47 7.296,2.47c1.621,0 3.052,-0.203 4.294,-0.608c1.241,-0.405 2.647,-0.963 4.218,-1.672c1.52,-0.811 2.634,-1.216 3.344,-1.216Zm-13.148,-21.204c-2.584,0 -4.649,0.811 -6.194,2.432c-1.546,1.621 -2.47,3.952 -2.774,6.992l17.176,0c-0.102,-3.091 -0.862,-5.434 -2.28,-7.03c-1.419,-1.596 -3.395,-2.394 -5.928,-2.394Z" style="fill:#102a43;fill-rule:nonzero;"/><path d="M296.73,78.54c-5.523,0 -9.982,-1.089 -13.376,-3.268c-1.622,-0.963 -2.432,-2.331 -2.432,-4.104c0,-1.013 0.278,-1.837 0.836,-2.47c0.557,-0.633 1.241,-0.95 2.052,-0.95c0.861,0 2.052,0.405 3.572,1.216c1.621,0.76 3.103,1.343 4.446,1.748c1.342,0.405 3.052,0.608 5.13,0.608c2.128,0 3.787,-0.355 4.978,-1.064c1.19,-0.709 1.786,-1.697 1.786,-2.964c0,-0.861 -0.241,-1.545 -0.722,-2.052c-0.482,-0.507 -1.343,-0.975 -2.584,-1.406c-1.242,-0.431 -3.129,-0.925 -5.662,-1.482c-4.51,-0.912 -7.74,-2.204 -9.69,-3.876c-1.951,-1.672 -2.926,-3.977 -2.926,-6.916c0,-2.229 0.658,-4.243 1.976,-6.042c1.317,-1.799 3.128,-3.192 5.434,-4.18c2.305,-0.988 4.927,-1.482 7.866,-1.482c2.128,0 4.18,0.266 6.156,0.798c1.976,0.532 3.749,1.305 5.32,2.318c1.621,1.013 2.432,2.356 2.432,4.028c0,1.013 -0.279,1.862 -0.836,2.546c-0.558,0.684 -1.242,1.026 -2.052,1.026c-0.558,0 -1.102,-0.114 -1.634,-0.342c-0.532,-0.228 -1.204,-0.57 -2.014,-1.026c-1.47,-0.76 -2.736,-1.33 -3.8,-1.71c-1.064,-0.38 -2.382,-0.57 -3.952,-0.57c-1.875,0 -3.357,0.38 -4.446,1.14c-1.09,0.76 -1.634,1.799 -1.634,3.116c0,1.267 0.557,2.229 1.672,2.888c1.114,0.659 3.268,1.317 6.46,1.976c3.394,0.709 6.054,1.52 7.98,2.432c1.925,0.912 3.306,2.052 4.142,3.42c0.836,1.368 1.254,3.116 1.254,5.244c0,3.445 -1.432,6.207 -4.294,8.284c-2.863,2.077 -6.676,3.116 -11.438,3.116Z" style="fill:#102a43;fill-rule:nonzero;"/><path d="M333.59,78.54c-5.523,0 -9.982,-1.089 -13.376,-3.268c-1.622,-0.963 -2.432,-2.331 -2.432,-4.104c0,-1.013 0.278,-1.837 0.836,-2.47c0.557,-0.633 1.241,-0.95 2.052,-0.95c0.861,0 2.052,0.405 3.572,1.216c1.621,0.76 3.103,1.343 4.446,1.748c1.342,0.405 3.052,0.608 5.13,0.608c2.128,0 3.787,-0.355 4.978,-1.064c1.19,-0.709 1.786,-1.697 1.786,-2.964c0,-0.861 -0.241,-1.545 -0.722,-2.052c-0.482,-0.507 -1.343,-0.975 -2.584,-1.406c-1.242,-0.431 -3.129,-0.925 -5.662,-1.482c-4.51,-0.912 -7.74,-2.204 -9.69,-3.876c-1.951,-1.672 -2.926,-3.977 -2.926,-6.916c0,-2.229 0.658,-4.243 1.976,-6.042c1.317,-1.799 3.128,-3.192 5.434,-4.18c2.305,-0.988 4.927,-1.482 7.866,-1.482c2.128,0 4.18,0.266 6.156,0.798c1.976,0.532 3.749,1.305 5.32,2.318c1.621,1.013 2.432,2.356 2.432,4.028c0,1.013 -0.279,1.862 -0.836,2.546c-0.558,0.684 -1.242,1.026 -2.052,1.026c-0.558,0 -1.102,-0.114 -1.634,-0.342c-0.532,-0.228 -1.204,-0.57 -2.014,-1.026c-1.47,-0.76 -2.736,-1.33 -3.8,-1.71c-1.064,-0.38 -2.382,-0.57 -3.952,-0.57c-1.875,0 -3.357,0.38 -4.446,1.14c-1.09,0.76 -1.634,1.799 -1.634,3.116c0,1.267 0.557,2.229 1.672,2.888c1.114,0.659 3.268,1.317 6.46,1.976c3.394,0.709 6.054,1.52 7.98,2.432c1.925,0.912 3.306,2.052 4.142,3.42c0.836,1.368 1.254,3.116 1.254,5.244c0,3.445 -1.432,6.207 -4.294,8.284c-2.863,2.077 -6.676,3.116 -11.438,3.116Z" style="fill:#102a43;fill-rule:nonzero;"/><path d="M373.946,78.54c-3.8,0 -7.132,-0.785 -9.994,-2.356c-2.863,-1.571 -5.08,-3.825 -6.65,-6.764c-1.571,-2.939 -2.356,-6.359 -2.356,-10.26c0,-3.901 0.785,-7.309 2.356,-10.222c1.57,-2.913 3.787,-5.155 6.65,-6.726c2.862,-1.571 6.194,-2.356 9.994,-2.356c3.8,0 7.131,0.785 9.994,2.356c2.862,1.571 5.066,3.813 6.612,6.726c1.545,2.913 2.318,6.321 2.318,10.222c0,3.901 -0.773,7.321 -2.318,10.26c-1.546,2.939 -3.75,5.193 -6.612,6.764c-2.863,1.571 -6.194,2.356 -9.994,2.356Zm-0.076,-7.372c3.09,0 5.446,-1.013 7.068,-3.04c1.621,-2.027 2.432,-5.016 2.432,-8.968c0,-3.901 -0.811,-6.878 -2.432,-8.93c-1.622,-2.052 -3.952,-3.078 -6.992,-3.078c-3.04,0 -5.384,1.026 -7.03,3.078c-1.647,2.052 -2.47,5.029 -2.47,8.93c0,3.952 0.81,6.941 2.432,8.968c1.621,2.027 3.952,3.04 6.992,3.04Z" style="fill:#102a43;fill-rule:nonzero;"/></g></svg>